<svg xmlns="http://www.w3.org/2000/svg" width="24.156" height="19.409" viewBox="0 0 24.156 19.409"><g transform="translate(0.1 0.1)"><path d="M21.461,85.333H2.5a2.788,2.788,0,0,0-2.5,3v13.206a2.788,2.788,0,0,0,2.5,3H21.461a2.788,2.788,0,0,0,2.5-3V88.334A2.788,2.788,0,0,0,21.461,85.333Zm1.5,16.208a1.672,1.672,0,0,1-1.5,1.8H2.5a1.672,1.672,0,0,1-1.5-1.8V88.334a1.672,1.672,0,0,1,1.5-1.8H21.461a1.672,1.672,0,0,1,1.5,1.8v13.206Z" transform="translate(0 -85.333)" fill="#ed3338" stroke="#ed3338" stroke-width="0.2"/><g transform="translate(0 3.602)"><g transform="translate(0 0)"><path d="M23.457,149.333H.5a.557.557,0,0,0-.5.6v3.6a.557.557,0,0,0,.5.6H23.457a.557.557,0,0,0,.5-.6v-3.6A.557.557,0,0,0,23.457,149.333Zm-.5,3.6H1v-2.4h21.96v2.4Z" transform="translate(0 -149.333)" fill="#ed3338" stroke="#ed3338" stroke-width="0.2"/></g></g><g transform="translate(3.602 12.006)"><g transform="translate(0 0)"><path d="M71.8,298.667H64.6a.6.6,0,1,0,0,1.2h7.2a.6.6,0,1,0,0-1.2Z" transform="translate(-64 -298.667)" fill="#ed3338" stroke="#ed3338" stroke-width="0.2"/></g></g><g transform="translate(3.602 14.407)"><g transform="translate(0 0)"><path d="M71.8,341.333H64.6a.6.6,0,1,0,0,1.2h7.2a.6.6,0,1,0,0-1.2Z" transform="translate(-64 -341.333)" fill="#ed3338" stroke="#ed3338" stroke-width="0.2"/></g></g><g transform="translate(15.552 10.805)"><g transform="translate(0 0)"><path d="M365.668,277.333h-1.2a1.8,1.8,0,0,0-1.8,1.8v1.2a1.8,1.8,0,0,0,1.8,1.8h1.2a1.8,1.8,0,0,0,1.8-1.8v-1.2A1.8,1.8,0,0,0,365.668,277.333Zm.6,3a.6.6,0,0,1-.6.6h-1.2a.6.6,0,0,1-.6-.6v-1.2a.6.6,0,0,1,.6-.6h1.2a.6.6,0,0,1,.6.6Z" transform="translate(-362.667 -277.333)" fill="#ed3338" stroke="#ed3338" stroke-width="0.2"/></g></g></g></svg>