<svg xmlns="http://www.w3.org/2000/svg" width="23.615" height="18.838" viewBox="0 0 23.615 18.838"><path d="M21.3,18.64H4.45a2.11,2.11,0,0,1-2.024-1.487,2.161,2.161,0,0,1-.095-.6,2.364,2.364,0,0,1-2.309-2.1l-.015,0H0V13.444l.008,0v-11A2.45,2.45,0,0,1,2.458,0h6.1a.5.5,0,1,1,0,1h-6.1A1.447,1.447,0,0,0,1.013,2.3a1.319,1.319,0,0,0-.008.148V14.2A1.371,1.371,0,0,0,2.33,15.561V4.2A2.12,2.12,0,0,1,4.45,2.084H20.069A1.368,1.368,0,0,0,18.733,1H12.545a.5.5,0,1,1,0-1h5.367l.027.009h1.021a2.373,2.373,0,0,1,2.116,2.074H21.3A2.12,2.12,0,0,1,23.415,4.2V16.524A2.12,2.12,0,0,1,21.3,18.64ZM9.079,7.8a.678.678,0,0,0-.447.169l-5.3,4.672v3.888a1.135,1.135,0,0,0,.05.332,1.119,1.119,0,0,0,1.072.788H21.3a1.122,1.122,0,0,0,1.121-1.121V13.6l-2.769-2.089a.666.666,0,0,0-.408-.137.679.679,0,0,0-.4.13l-2.629,1.912,1.128,1.161a.5.5,0,0,1-.358.844.5.5,0,0,1-.357-.151l-4.7-4.837L9.564,8A.672.672,0,0,0,9.079,7.8Zm0-1a1.657,1.657,0,0,1,1.2.509l5.232,5.385,2.743-2a1.669,1.669,0,0,1,1.994.017l2.168,1.636V4.2A1.123,1.123,0,0,0,21.3,3.08H4.45A1.123,1.123,0,0,0,3.327,4.2v7.109L7.972,7.219A1.672,1.672,0,0,1,9.079,6.8Zm8.18,2.566a2.13,2.13,0,1,1,2.133-2.129A2.134,2.134,0,0,1,17.259,9.365Zm0-3.264A1.134,1.134,0,1,0,18.4,7.236,1.137,1.137,0,0,0,17.259,6.1ZM10.551,1a.476.476,0,0,1-.1-.01.578.578,0,0,1-.093-.028.55.55,0,0,1-.086-.046A.615.615,0,0,1,10.2.851a.616.616,0,0,1-.062-.076.536.536,0,0,1-.046-.086A.521.521,0,0,1,10.062.6a.581.581,0,0,1-.01-.1.527.527,0,0,1,.01-.1.557.557,0,0,1,.029-.094.76.76,0,0,1,.046-.086A.5.5,0,0,1,10.2.148a.487.487,0,0,1,.076-.062A.534.534,0,0,1,10.361.04a.436.436,0,0,1,.093-.028.471.471,0,0,1,.1-.01.45.45,0,0,1,.1.01.441.441,0,0,1,.093.028.468.468,0,0,1,.086.046A.414.414,0,0,1,10.9.148a.392.392,0,0,1,.062.076.457.457,0,0,1,.046.086A.49.49,0,0,1,11.04.4a.456.456,0,0,1,.009.1.46.46,0,0,1-.009.1.437.437,0,0,1-.029.093.489.489,0,0,1-.046.086A.473.473,0,0,1,10.9.851a.5.5,0,0,1-.076.062.417.417,0,0,1-.086.046.5.5,0,0,1-.093.028A.488.488,0,0,1,10.551,1Z" transform="translate(0.1 0.098)" fill="#ed3338" stroke="#ed3338" stroke-width="0.2"/></svg>