<svg id="surface1" xmlns="http://www.w3.org/2000/svg" width="17.388" height="22.362" viewBox="0 0 17.388 22.362">
  <path id="Path_117" data-name="Path 117" d="M15.557,8.6V6.551A6.721,6.721,0,0,0,8.694,0,6.721,6.721,0,0,0,1.83,6.551V8.6A2.215,2.215,0,0,0,0,10.744v2.48a.448.448,0,0,0,.458.437.448.448,0,0,0,.458-.437v-2.48a1.344,1.344,0,0,1,1.373-1.31H15.1a1.344,1.344,0,0,1,1.373,1.31v9.434a1.318,1.318,0,0,1-.915,1.235V18.781a.458.458,0,0,0-.915,0v2.708H2.288a1.344,1.344,0,0,1-1.373-1.31v-3.45a.448.448,0,0,0-.458-.437A.448.448,0,0,0,0,16.728v3.45a2.24,2.24,0,0,0,2.288,2.184H15.1a2.24,2.24,0,0,0,2.288-2.184V10.744A2.215,2.215,0,0,0,15.557,8.6ZM5.216,8.561V6.551A3.405,3.405,0,0,1,8.694,3.232a3.405,3.405,0,0,1,3.478,3.319V8.561Zm7.87,0V6.551A4.3,4.3,0,0,0,8.694,2.359,4.3,4.3,0,0,0,4.3,6.551V8.561H2.745V6.551A5.824,5.824,0,0,1,8.694.874a5.824,5.824,0,0,1,5.948,5.678V8.561Zm0,0" transform="translate(0 0)" fill="#ed3338"/>
  <path id="Path_118" data-name="Path 118" d="M.458,333.4A.457.457,0,1,0,0,332.946a.458.458,0,0,0,.458.458Zm0,0" transform="translate(0 -317.994)" fill="#ed3338"/>
  <path id="Path_119" data-name="Path 119" d="M138.594,284.246a1.374,1.374,0,0,0,1.373-1.373v-2.43a2.471,2.471,0,1,0-2.745-.008v2.438A1.374,1.374,0,0,0,138.594,284.246Zm-1.55-5.861a1.556,1.556,0,1,1,2.258,1.388.457.457,0,0,0-.251.408v2.692a.458.458,0,1,1-.915,0v-2.7a.457.457,0,0,0-.248-.407A1.551,1.551,0,0,1,137.044,278.385Zm0,0" transform="translate(-129.9 -264.354)" fill="#ed3338"/>
  <path id="Path_120" data-name="Path 120" d="M320.458,379.915a.458.458,0,1,0-.324-.134A.46.46,0,0,0,320.458,379.915Zm0,0" transform="translate(-305.358 -362.479)" fill="#ed3338"/>
</svg>
