<svg id="noun_Crosshair_1741704" xmlns="http://www.w3.org/2000/svg" width="65.346" height="65.346" viewBox="0 0 65.346 65.346">
  <path id="Path_1980" data-name="Path 1980" d="M183.552,196.3h-.006a11.532,11.532,0,0,1-1.778-.138l.253-1.614a9.9,9.9,0,0,0,1.526.118Zm1.785-.14-.254-1.614a9.757,9.757,0,0,0,1.492-.358l.5,1.554A11.373,11.373,0,0,1,185.337,196.157Zm-5.312-.414a11.407,11.407,0,0,1-1.657-.686l.742-1.455a9.767,9.767,0,0,0,1.418.587Zm8.71-.691-.743-1.455a9.828,9.828,0,0,0,1.307-.8l.962,1.321A11.425,11.425,0,0,1,188.735,195.052Zm-11.894-.931a11.5,11.5,0,0,1-1.362-1.163l1.154-1.156a9.883,9.883,0,0,0,1.168,1Zm14.781-1.17-1.155-1.155a9.853,9.853,0,0,0,1-1.167l1.321.961A11.532,11.532,0,0,1,191.621,192.951ZM174.314,191.6a11.443,11.443,0,0,1-.938-1.525l1.454-.744a9.83,9.83,0,0,0,.8,1.307Zm19.408-1.535-1.455-.742a9.767,9.767,0,0,0,.588-1.418l1.554.5A11.4,11.4,0,0,1,193.722,190.062Zm-21.035-1.644a11.382,11.382,0,0,1-.419-1.742l1.614-.255a9.728,9.728,0,0,0,.358,1.491Zm22.137-1.755-1.614-.254a9.887,9.887,0,0,0,.119-1.531v-.023h1.634v.023A11.518,11.518,0,0,1,194.825,186.664Zm-22.7-1.756v-.029a11.539,11.539,0,0,1,.137-1.772l1.614.252a9.9,9.9,0,0,0-.117,1.508v.024h-.916Zm21.079-1.581a9.763,9.763,0,0,0-.36-1.492l1.553-.508a11.462,11.462,0,0,1,.421,1.742Zm-18.974-1.461-1.554-.5a11.391,11.391,0,0,1,.685-1.657l1.456.741A9.759,9.759,0,0,0,174.234,181.866Zm18.023-1.446a9.785,9.785,0,0,0-.805-1.306l1.319-.964a11.439,11.439,0,0,1,.94,1.524Zm-16.635-1.282-1.322-.96a11.525,11.525,0,0,1,1.162-1.363l1.157,1.154A9.9,9.9,0,0,0,175.622,179.138Zm14.83-1.19a9.874,9.874,0,0,0-1.169-1l.959-1.323a11.513,11.513,0,0,1,1.364,1.161Zm-12.667-.978-.963-1.32a11.451,11.451,0,0,1,1.525-.939l.745,1.454A9.773,9.773,0,0,0,177.785,176.97Zm10.188-.819a9.772,9.772,0,0,0-1.419-.586l.5-1.555a11.4,11.4,0,0,1,1.657.684Zm-7.465-.576L180,174.022a11.383,11.383,0,0,1,1.742-.42l.256,1.613A9.729,9.729,0,0,0,180.507,175.575Zm4.554-.364a9.923,9.923,0,0,0-1.516-.116h-.017v-1.634h.017a11.55,11.55,0,0,1,1.766.136Z" transform="translate(-150.873 -152.024)" fill="#fff"/>
  <g id="Group_286" data-name="Group 286">
    <path id="Path_1981" data-name="Path 1981" d="M77.112,48.033a28.486,28.486,0,0,0-27.627-27.8V16H47.851v4.234a28.486,28.486,0,0,0-27.627,27.8H16v1.633h4.24A28.486,28.486,0,0,0,47.851,77.107v4.234h1.634V77.107A28.486,28.486,0,0,0,77.1,49.666h4.24V48.033ZM47.851,21.863v3.9A22.947,22.947,0,0,0,25.757,48.033h-3.9A26.851,26.851,0,0,1,47.851,21.863Zm0,53.609A26.851,26.851,0,0,1,21.87,49.666h3.9a22.948,22.948,0,0,0,22.08,21.9Zm0-11.881v6.344a21.313,21.313,0,0,1-20.445-20.27h6.338V48.033H27.392A21.312,21.312,0,0,1,47.851,27.4v6.344h1.634V27.4A21.312,21.312,0,0,1,69.943,48.033H63.592v1.633h6.337a21.313,21.313,0,0,1-20.444,20.27V63.592H47.851Zm1.634,11.881v-3.9a22.948,22.948,0,0,0,22.079-21.9h3.9A26.851,26.851,0,0,1,49.485,75.473Zm22.093-27.44A22.947,22.947,0,0,0,49.485,25.765v-3.9A26.851,26.851,0,0,1,75.478,48.033Z" transform="translate(-15.995 -15.995)" fill="#fff"/>
    <path id="Path_1982" data-name="Path 1982" d="M202.928,195.9a8.364,8.364,0,1,0,8.364,8.364A8.373,8.373,0,0,0,202.928,195.9Zm6.656,7.365h-5.839v-5.68A6.743,6.743,0,0,1,209.583,203.261Zm-7.473-5.68v5.68h-5.838A6.743,6.743,0,0,1,202.11,197.581Zm-5.882,7.314h5.882v6.043A6.74,6.74,0,0,1,196.229,204.9Zm7.515,6.043V204.9h5.883A6.741,6.741,0,0,1,203.744,210.938Z" transform="translate(-170.255 -171.405)" fill="#fff"/>
  </g>
</svg>
