<svg id="question" xmlns="http://www.w3.org/2000/svg" width="64.663" height="64.663" viewBox="0 0 64.663 64.663">
  <path id="Path_1963" data-name="Path 1963" d="M55.193,9.47A32.332,32.332,0,0,0,11.177,7.881a.96.96,0,0,0,1.258,1.452,30.424,30.424,0,1,1-2.661,2.6.96.96,0,1,0-1.424-1.289A32.331,32.331,0,1,0,55.193,9.47Zm0,0" transform="translate(0)" fill="#fff"/>
  <path id="Path_1964" data-name="Path 1964" d="M209.124,347.125a5.437,5.437,0,1,0,3.86,9.242,5.484,5.484,0,0,0,1.576-3.805,5.476,5.476,0,0,0-5.437-5.437Zm0,8.953a3.517,3.517,0,0,1,0-7.032,3.516,3.516,0,0,1,0,7.032Zm0,0" transform="translate(-178.014 -303.285)" fill="#fff"/>
  <path id="Path_1965" data-name="Path 1965" d="M174.945,97.68a.96.96,0,0,0,1.355-.092,12.532,12.532,0,0,0,3.488-8.249,9.561,9.561,0,0,0-3.764-7.6,15.226,15.226,0,0,0-9.577-2.954,14.147,14.147,0,0,0-9.281,2.937,7.914,7.914,0,0,0-3.132,5.812,4.089,4.089,0,0,0,1.513,3.255,4.748,4.748,0,0,0,2.935,1.019,3.778,3.778,0,0,0,3.278-2.135c.817-1.2,1.588-2.342,4.511-2.342,1,0,4.271.216,4.271,2.993,0,2.1-1.937,3.583-3.647,4.9-.422.324-.821.63-1.193.946a11.559,11.559,0,0,0-4.228,9.564c0,2.914.707,4.855,4.158,4.855a4.97,4.97,0,0,0,3.43-1.029,3.038,3.038,0,0,0,.96-2.316c0-2.831,0-4.252,2.887-6.51l.049-.038c.127-.1.274-.214.436-.345a.96.96,0,1,0-1.206-1.495c-.153.124-.292.232-.412.326l-.051.039c-3.456,2.7-3.625,4.71-3.625,8.023,0,.426,0,1.424-2.469,1.424-1.206,0-1.573-.252-1.758-.472a4.158,4.158,0,0,1-.48-2.463,9.666,9.666,0,0,1,3.556-8.1c.331-.281.711-.573,1.114-.882,1.959-1.5,4.4-3.376,4.4-6.419,0-2.985-2.431-4.913-6.192-4.913-3.941,0-5.189,1.841-6.1,3.185-.623.919-.907,1.292-1.689,1.292a2.387,2.387,0,0,1-2.527-2.354,6.013,6.013,0,0,1,2.435-4.331,12.27,12.27,0,0,1,8.058-2.5c6.724,0,11.42,3.549,11.42,8.63a10.686,10.686,0,0,1-3.014,6.986.96.96,0,0,0,.091,1.355Zm0,0" transform="translate(-134.581 -68.838)" fill="#fff"/>
</svg>
