<svg xmlns="http://www.w3.org/2000/svg" width="21.027" height="19.7" viewBox="0 0 21.027 19.7"><g transform="translate(0.1 0.1)"><path d="M19.526,21.5H15.407a5.057,5.057,0,0,0,.726-.582,2.723,2.723,0,0,0,0-3.83,2.752,2.752,0,0,0-3.818,0c-.564.566-2.062,2.872-1.855,4.411h-.094c.206-1.54-1.291-3.845-1.855-4.411a2.752,2.752,0,0,0-3.818,0,2.724,2.724,0,0,0,0,3.83,5.151,5.151,0,0,0,.728.582H1.3A1.3,1.3,0,0,0,0,22.8v3.254a.651.651,0,0,0,.651.651H1.3v7.81a1.3,1.3,0,0,0,1.3,1.3h15.62a1.3,1.3,0,0,0,1.3-1.3V26.7h.651a.651.651,0,0,0,.651-.651V22.8A1.3,1.3,0,0,0,19.526,21.5ZM5.617,18a1.388,1.388,0,0,1,1.972,0c.877.883,1.749,3.137,1.446,3.451a.429.429,0,0,1-.241.043A6.4,6.4,0,0,1,5.617,20,1.42,1.42,0,0,1,5.617,18ZM9.763,34.512H2.6V26.7H9.763Zm0-9.112H1.3V22.8H9.763ZM13.238,18A1.4,1.4,0,0,1,15.21,20a6.4,6.4,0,0,1-3.177,1.5.428.428,0,0,1-.242-.043C11.489,21.139,12.361,18.884,13.238,18Zm4.986,16.511H11.064V26.7h7.159Zm1.3-9.112H11.064V22.8h8.461Z" transform="translate(0 -16.314)" fill="#ed3338" stroke="#ed3338" stroke-width="0.2"/></g></svg>