<svg xmlns="http://www.w3.org/2000/svg" width="17.39" height="22.36" viewBox="0 0 17.39 22.36">
  <g id="unlock-password" transform="translate(-65.6)">
    <path id="Path_121" data-name="Path 121" d="M81.543,8.6h0L76.871,8.56H71.211V6.551a3.479,3.479,0,0,1,6.944-.1h3.383a6.865,6.865,0,0,0-13.709.1V8.6A2.211,2.211,0,0,0,66,10.743v2.481a.458.458,0,0,0,.914,0V10.743a1.346,1.346,0,0,1,1.371-1.31h12.8a1.346,1.346,0,0,1,1.371,1.31v9.433a1.321,1.321,0,0,1-.914,1.236V18.779a.458.458,0,0,0-.914,0v2.708H68.286a1.346,1.346,0,0,1-1.371-1.31v-3.45a.458.458,0,0,0-.914,0v3.45a2.237,2.237,0,0,0,2.286,2.184h12.8a2.237,2.237,0,0,0,2.286-2.184V10.743A2.218,2.218,0,0,0,81.543,8.6ZM70.3,8.56H68.743V6.551a5.964,5.964,0,0,1,11.835-.725H79.005a4.408,4.408,0,0,0-8.708.725Z" transform="translate(-0.381)" fill="#bdbdbd"/>
    <path id="Path_122" data-name="Path 122" d="M66.074,332.047a.5.5,0,0,0,.336-.137.469.469,0,0,0,.137-.336.5.5,0,0,0-.137-.336.469.469,0,0,0-.336-.137.489.489,0,0,0-.336.137.469.469,0,0,0-.137.336.5.5,0,0,0,.137.336A.477.477,0,0,0,66.074,332.047Z" transform="translate(0 -316.69)" fill="#bdbdbd"/>
    <path id="Path_123" data-name="Path 123" d="M207.253,281.124a1.425,1.425,0,0,0,1.421-1.421v-2.515a2.56,2.56,0,1,0-2.841-.009V279.7A1.422,1.422,0,0,0,207.253,281.124Zm-1.6-6.067a1.61,1.61,0,0,1,3.22,0,1.592,1.592,0,0,1-.886,1.435.468.468,0,0,0-.26.421V279.7a.474.474,0,0,1-.947,0V276.9a.478.478,0,0,0-.256-.422A1.582,1.582,0,0,1,205.652,275.057Z" transform="translate(-132.832 -261.482)" fill="#bdbdbd"/>
    <path id="Path_124" data-name="Path 124" d="M386.074,378.547a.5.5,0,0,0,.336-.137.461.461,0,0,0,.137-.336.489.489,0,0,0-.137-.336.461.461,0,0,0-.336-.137.5.5,0,0,0-.336.137.461.461,0,0,0-.137.336.489.489,0,0,0,.137.336A.469.469,0,0,0,386.074,378.547Z" transform="translate(-305.47 -361.166)" fill="#bdbdbd"/>
  </g>
</svg>
