<svg xmlns="http://www.w3.org/2000/svg" width="17.371" height="22.36" viewBox="0 0 17.371 22.36">
  <path id="Path_121" data-name="Path 121" d="M81.543,8.6h0L76.871,8.56H71.211V6.551a3.479,3.479,0,0,1,6.944-.1h3.383a6.865,6.865,0,0,0-13.709.1V8.6A2.211,2.211,0,0,0,66,10.743v2.481a.458.458,0,0,0,.914,0V10.743a1.346,1.346,0,0,1,1.371-1.31h12.8a1.346,1.346,0,0,1,1.371,1.31v9.433a1.321,1.321,0,0,1-.914,1.236V18.779a.458.458,0,0,0-.914,0v2.708H68.286a1.346,1.346,0,0,1-1.371-1.31v-3.45a.458.458,0,0,0-.914,0v3.45a2.237,2.237,0,0,0,2.286,2.184h12.8a2.237,2.237,0,0,0,2.286-2.184V10.743A2.218,2.218,0,0,0,81.543,8.6ZM70.3,8.56H68.743V6.551a5.964,5.964,0,0,1,11.835-.725H79.005a4.408,4.408,0,0,0-8.708.725Z" transform="translate(-66)" fill="#bdbdbd"/>
</svg>
