<svg xmlns="http://www.w3.org/2000/svg" width="340.078" height="396.798" viewBox="0 0 340.078 396.798">
  <g id="Group_319" data-name="Group 319" transform="translate(-886.292 -180.768)">
    <g id="Group_318" data-name="Group 318" transform="translate(991.527 180.768)">
      <path id="Path_2023" data-name="Path 2023" d="M289.962,124.847a19.6,19.6,0,0,0-19.573,19.573V501.694a19.6,19.6,0,0,0,19.573,19.573h195.7a19.6,19.6,0,0,0,19.573-19.573V144.42a19.6,19.6,0,0,0-19.573-19.573Z" transform="translate(-270.388 -124.847)" fill="#e6e6e6"/>
      <path id="Path_2024" data-name="Path 2024" d="M303.388,143a14.867,14.867,0,0,0-14.85,14.85V502.326a14.867,14.867,0,0,0,14.85,14.85h182.9a14.867,14.867,0,0,0,14.85-14.85V157.847A14.867,14.867,0,0,0,486.29,143Z" transform="translate(-277.418 -131.876)" fill="#fff"/>
      <path id="Path_2025" data-name="Path 2025" d="M492.455,229.665H315.832a3.275,3.275,0,0,1-3.271-3.271V182.582a3.275,3.275,0,0,1,3.271-3.271H492.455a3.275,3.275,0,0,1,3.271,3.271v43.813A3.275,3.275,0,0,1,492.455,229.665ZM315.832,180.619a1.965,1.965,0,0,0-1.963,1.963v43.813a1.965,1.965,0,0,0,1.963,1.963H492.455a1.965,1.965,0,0,0,1.962-1.963V182.582a1.965,1.965,0,0,0-1.962-1.962Z" transform="translate(-286.721 -145.941)" fill="#e6e6e6"/>
      <path id="Path_2026" data-name="Path 2026" d="M492.455,489.025H315.832a3.275,3.275,0,0,1-3.271-3.271v-81.1a3.275,3.275,0,0,1,3.271-3.271H492.455a3.275,3.275,0,0,1,3.271,3.271v81.1A3.275,3.275,0,0,1,492.455,489.025ZM315.832,402.692a1.965,1.965,0,0,0-1.963,1.963v81.1a1.965,1.965,0,0,0,1.963,1.963H492.455a1.965,1.965,0,0,0,1.962-1.963v-81.1a1.965,1.965,0,0,0-1.962-1.963Z" transform="translate(-286.721 -231.948)" fill="#e6e6e6"/>
      <path id="Path_2027" data-name="Path 2027" d="M552.344,340.7h-78.5a3.275,3.275,0,0,1-3.271-3.271V293.618a3.275,3.275,0,0,1,3.271-3.271h78.5a3.275,3.275,0,0,1,3.271,3.271V337.43A3.275,3.275,0,0,1,552.344,340.7Zm-78.5-49.046a1.965,1.965,0,0,0-1.962,1.963V337.43a1.965,1.965,0,0,0,1.962,1.962h78.5a1.965,1.965,0,0,0,1.963-1.962V293.618a1.965,1.965,0,0,0-1.963-1.963Z" transform="translate(-347.919 -188.944)" fill="#e6e6e6"/>
      <path id="Path_2028" data-name="Path 2028" d="M394.331,661.572h-78.5a3.275,3.275,0,0,1-3.271-3.271V576.547a3.275,3.275,0,0,1,3.271-3.271h78.5a3.275,3.275,0,0,1,3.271,3.271V658.3A3.275,3.275,0,0,1,394.331,661.572Zm-78.5-86.988a1.965,1.965,0,0,0-1.963,1.963V658.3a1.965,1.965,0,0,0,1.963,1.963h78.5a1.965,1.965,0,0,0,1.962-1.963V576.547a1.965,1.965,0,0,0-1.963-1.963Z" transform="translate(-286.721 -298.521)" fill="#e6e6e6"/>
      <path id="Path_2029" data-name="Path 2029" d="M552.344,661.572h-78.5a3.275,3.275,0,0,1-3.271-3.271V576.547a3.275,3.275,0,0,1,3.271-3.271h78.5a3.275,3.275,0,0,1,3.271,3.271V658.3A3.275,3.275,0,0,1,552.344,661.572Zm-78.5-86.988a1.965,1.965,0,0,0-1.962,1.963V658.3a1.965,1.965,0,0,0,1.962,1.963h78.5a1.965,1.965,0,0,0,1.963-1.963V576.547a1.965,1.965,0,0,0-1.963-1.963Z" transform="translate(-347.919 -298.521)" fill="#e6e6e6"/>
      <ellipse id="Ellipse_66" data-name="Ellipse 66" cx="13.323" cy="13.323" rx="13.323" ry="13.323" transform="translate(41.922 184.841)" fill="#ed3338"/>
      <path id="Path_2030" data-name="Path 2030" d="M409.372,433.776a2.221,2.221,0,1,0,0,4.441H514.057a2.221,2.221,0,0,0,0-4.441Z" transform="translate(-323.356 -244.494)" fill="#e6e6e6"/>
      <path id="Path_2031" data-name="Path 2031" d="M409.372,455.521a2.221,2.221,0,1,0,0,4.441h45.046a2.221,2.221,0,1,0,0-4.441Z" transform="translate(-323.356 -252.915)" fill="#e6e6e6"/>
      <path id="Path_2032" data-name="Path 2032" d="M341.938,490.286c-1.689,0-3.064,1-3.064,2.221s1.375,2.221,3.064,2.221H486.371c1.689,0,3.064-1,3.064-2.221s-1.375-2.221-3.064-2.221Z" transform="translate(-296.913 -266.38)" fill="#e6e6e6"/>
      <path id="Path_2033" data-name="Path 2033" d="M341.938,512.031c-1.689,0-3.064,1-3.064,2.221s1.375,2.221,3.064,2.221H486.371c1.689,0,3.064-1,3.064-2.221s-1.375-2.221-3.064-2.221Z" transform="translate(-296.913 -274.801)" fill="#e6e6e6"/>
      <ellipse id="Ellipse_67" data-name="Ellipse 67" cx="13.323" cy="13.323" rx="13.323" ry="13.323" transform="translate(43.23 43.543)" fill="#ed3338"/>
      <path id="Path_2034" data-name="Path 2034" d="M411.507,203.162a2.221,2.221,0,0,0,0,4.441H516.193a2.221,2.221,0,0,0,0-4.441Z" transform="translate(-324.183 -155.178)" fill="#e6e6e6"/>
      <path id="Path_2035" data-name="Path 2035" d="M411.507,224.907a2.221,2.221,0,0,0,0,4.441h45.046a2.221,2.221,0,0,0,0-4.441Z" transform="translate(-324.183 -163.6)" fill="#e6e6e6"/>
      <path id="Path_2036" data-name="Path 2036" d="M399.357,346.494H325.718l17.33-30.017a3.539,3.539,0,0,1,6.13,0l7.4,12.823,12.588-21.8a4.431,4.431,0,0,1,7.674,0Zm-71.373-1.309h69.108l-21.382-37.034a3.122,3.122,0,0,0-5.408,0l-13.721,23.765-8.537-14.785a2.23,2.23,0,0,0-3.863,0Z" transform="translate(-291.817 -194.728)" fill="#e6e6e6"/>
      <path id="Path_2037" data-name="Path 2037" d="M553.1,346.494H479.46l17.33-30.017a3.539,3.539,0,0,1,6.13,0l7.4,12.823,12.588-21.8a4.431,4.431,0,0,1,7.674,0Zm-71.373-1.308h69.108l-21.382-37.034a3.122,3.122,0,0,0-5.408,0l-13.721,23.765-8.536-14.785a2.23,2.23,0,0,0-3.863,0Z" transform="translate(-351.361 -194.728)" fill="#e6e6e6"/>
      <path id="Path_2038" data-name="Path 2038" d="M394.331,340.7h-78.5a3.275,3.275,0,0,1-3.271-3.271V293.618a3.275,3.275,0,0,1,3.271-3.271h78.5a3.275,3.275,0,0,1,3.271,3.271V337.43A3.275,3.275,0,0,1,394.331,340.7Zm-78.5-49.046a1.965,1.965,0,0,0-1.963,1.963V337.43a1.965,1.965,0,0,0,1.963,1.962h78.5a1.965,1.965,0,0,0,1.962-1.962V293.618a1.965,1.965,0,0,0-1.963-1.963Z" transform="translate(-286.721 -188.944)" fill="#e6e6e6"/>
      <path id="Path_2039" data-name="Path 2039" d="M343.8,600.792a2.221,2.221,0,1,0,0,4.441h45.046a2.221,2.221,0,1,0,0-4.441Z" transform="translate(-297.958 -309.178)" fill="#e6e6e6"/>
      <path id="Path_2040" data-name="Path 2040" d="M343.8,622.145a2.221,2.221,0,1,0,0,4.441h45.046a2.221,2.221,0,1,0,0-4.441Z" transform="translate(-297.958 -317.448)" fill="#e6e6e6"/>
      <path id="Path_2041" data-name="Path 2041" d="M373.124,672.2A13.977,13.977,0,1,1,387.1,658.22,13.977,13.977,0,0,1,373.124,672.2Zm0-26.647a12.669,12.669,0,1,0,12.669,12.669,12.669,12.669,0,0,0-12.669-12.669Z" transform="translate(-304.764 -326.006)" fill="#e6e6e6"/>
      <path id="Path_2042" data-name="Path 2042" d="M546.855,687.061a2.221,2.221,0,0,0,0-4.441H501.808a2.221,2.221,0,0,0,0,4.441Z" transform="translate(-359.156 -340.87)" fill="#e6e6e6"/>
      <path id="Path_2043" data-name="Path 2043" d="M546.855,665.708a2.221,2.221,0,0,0,0-4.441H501.808a2.221,2.221,0,0,0,0,4.441Z" transform="translate(-359.156 -332.6)" fill="#e6e6e6"/>
      <path id="Path_2044" data-name="Path 2044" d="M531.136,600.792a13.978,13.978,0,1,1-13.977,13.978A13.977,13.977,0,0,1,531.136,600.792Zm0,26.647a12.669,12.669,0,1,0-12.669-12.669,12.669,12.669,0,0,0,12.669,12.669Z" transform="translate(-365.961 -309.178)" fill="#e6e6e6"/>
    </g>
    <g id="Group_317" data-name="Group 317" transform="translate(886.292 239.777)">
      <path id="Path_2046" data-name="Path 2046" d="M567.488,356.754l8.963,18.981,6.854-16.344-8.963-5.8Z" transform="translate(-499.473 -197.602)" fill="#ffb8b8"/>
      <path id="Path_2047" data-name="Path 2047" d="M691.038,362.957l-2.9,14.5-12.654-16.872,10.018-5.272Z" transform="translate(-673.375 -198.268)" fill="#ffb8b8"/>
      <path id="Path_2048" data-name="Path 2048" d="M783.022,642.189c5.115,3.64,9.982,5.47,13.709-1.055-4.9-40.988-5.1-80.017,0-115.995l39.017,120.213,14.236-2.109c-7.958-43.077-14.036-106.664-21.617-170.3l-60.634-.527C759.7,518.3,773.076,577.961,783.022,642.189Z" transform="translate(-751.914 -320.116)" fill="#2f2e41"/>
      <path id="Path_2049" data-name="Path 2049" d="M769.777,761.387l29.743-2.146a5.389,5.389,0,0,0,3.223-5.7L801.4,743.9a.855.855,0,0,0-1.618-.247c-1.912,3.811-5,3.953-9.37.123-.958-2.555-2.775-3.667-5.731-2.865-5.668,8.6-12.447,5.808-20.64,12.476a5.041,5.041,0,0,0,1.282,7.759h0a5.041,5.041,0,0,0,4.45.243Z" transform="translate(-703.186 -424.003)" fill="#2f2e41"/>
      <path id="Path_2050" data-name="Path 2050" d="M855.83,761.387l29.743-2.146a5.389,5.389,0,0,0,3.223-5.7l-1.34-9.644a.855.855,0,0,0-1.618-.247c-1.912,3.811-5,3.953-9.37.123-.958-2.555-2.775-3.667-5.731-2.865-5.668,8.6-12.447,5.808-20.64,12.476a5.041,5.041,0,0,0,1.282,7.759h0a5.041,5.041,0,0,0,4.45.243Z" transform="translate(-841.965 -424.003)" fill="#2f2e41"/>
      <ellipse id="Ellipse_68" data-name="Ellipse 68" cx="20.036" cy="20.035" rx="20.036" ry="20.035" transform="translate(19.772 8.623)" fill="#ffb8b8"/>
      <path id="Path_2051" data-name="Path 2051" d="M833.684,313.443h30.58c-8.475-9.61-7.357-20.278,0-31.635H833.684C837.875,291.306,838.084,301.8,833.684,313.443Z" transform="translate(-808.112 -246.295)" fill="#ffb8b8"/>
      <path id="Path_2052" data-name="Path 2052" d="M790.393,417.444c20.677,10.041,41.416,8.905,62.215-3.164,4.59-28.2,6.312-62.366,6.794-99.112a6.116,6.116,0,0,0-5.138-6.122l-27.491-4.434-13.181,13.708-8.963-11.072-11.861,4.908a5.352,5.352,0,0,0-3.3,5.131C790.76,354.513,791.4,389.2,790.393,417.444Z" transform="translate(-776.157 -255.127)" fill="#ed3338"/>
      <path id="Path_2053" data-name="Path 2053" d="M831.7,258.738c1.84-5.624,5.214-9.718,10.341-12.064,11.52,2.448,20.926.779,28.725-4.021-1.281-6.042-4.1-11.075-9.145-14.645-3.775-3.336-5.437-.98-7.966-2.4-8.439-4.754-19.437.744-23.95,9.315a11.463,11.463,0,0,0-1.52,5.8Z" transform="translate(-811.243 -223.847)" fill="#2f2e41"/>
      <path id="Path_2054" data-name="Path 2054" d="M895.211,423.885l15.818-7.909L913.665,315.8l-2.526.777A16.86,16.86,0,0,0,899.267,331.7l-.365,44.209Z" transform="translate(-895.211 -259.46)" fill="#ed3338"/>
      <path id="Path_2055" data-name="Path 2055" d="M741.177,414.837l10.545,8.963c15.5-13.406,26.263-28.536,29.526-46.4l-18.584-54.425a16.675,16.675,0,0,0-14.548-11.241l-3.248-.241,2.373,38.226L759.1,378.984C759.843,386.826,750.4,400.9,741.177,414.837Z" transform="translate(-668.416 -257.793)" fill="#ed3338"/>
      <ellipse id="Ellipse_69" data-name="Ellipse 69" cx="2.109" cy="3.691" rx="2.109" ry="3.691" transform="translate(20.299 26.55)" fill="#ffb8b8"/>
    </g>
  </g>
</svg>
